<?xml version="1.0" encoding="UTF-8" standalone="no"?>
<!DOCTYPE svg PUBLIC "-//W3C//DTD SVG 1.1//EN" "http://www.w3.org/Graphics/SVG/1.1/DTD/svg11.dtd">
<svg width="100%" height="100%" viewBox="0 0 219 35" version="1.1" xmlns="http://www.w3.org/2000/svg" xmlns:xlink="http://www.w3.org/1999/xlink" xml:space="preserve" xmlns:serif="http://www.serif.com/" style="fill-rule:evenodd;clip-rule:evenodd;stroke-linejoin:round;stroke-miterlimit:2;">
    <g id="Artboard1" transform="matrix(0.849817,0,0,0.258056,254.053,86.6409)">
        <rect x="-298.951" y="-335.745" width="260.013" height="141.694" style="fill:none;"/>
        <g transform="matrix(1.17672,0,0,3.87513,-240.619,-313.378)">
            <path d="M0,-3.882C-0.236,-4.318 -0.476,-4.428 -0.963,-4.328C-1.395,-4.239 -1.785,-4.057 -2.148,-3.809C-2.864,-3.319 -3.502,-2.539 -3.836,-1.736C-4.194,-0.873 -4.284,0.413 -3.676,1.191C-3.1,1.929 -2.056,1.827 -1.226,1.802C0.873,1.739 2.91,1.16 4.74,0.134C5.565,-0.329 6.543,-0.868 7.179,-1.578C7.9,-2.384 8.119,-3.739 7.649,-4.722C7.148,-5.769 5.475,-5.811 4.477,-5.757C3.204,-5.69 1.979,-5.262 0.942,-4.525C0.39,-4.132 0.699,-1.986 1.25,-2.366C2.698,-3.366 4.479,-3.799 6.22,-3.489C6.422,-3.453 6.628,-3.415 6.815,-3.332C6.861,-3.313 6.972,-3.226 7.018,-3.225C7.013,-3.424 7.009,-3.622 7.004,-3.82C6.984,-3.773 6.964,-3.726 6.944,-3.68C6.682,-3.375 6.463,-3.142 6.136,-2.892C5.518,-2.419 4.873,-1.979 4.195,-1.593C2.786,-0.792 1.251,-0.294 -0.36,-0.111C-1.15,-0.022 -2.101,0.104 -2.847,-0.24C-2.977,-0.3 -3.089,-0.378 -3.204,-0.462C-3.35,-0.569 -3.315,-0.648 -3.267,-0.308C-3.212,0.073 -3.229,-0.251 -3.145,-0.429C-3.059,-0.611 -2.929,-0.784 -2.813,-0.949C-2.376,-1.573 -1.857,-2.035 -1.203,-2.419C-0.853,-2.625 -0.415,-2.792 -0.185,-3.137C-0.073,-3.302 0.116,-3.668 0,-3.882" style="fill:rgb(132,189,87);fill-rule:nonzero;"/>
        </g>
        <g transform="matrix(1.17672,0,0,3.87513,-283.285,-274.09)">
            <path d="M0,-0.178C0,-4.87 -2.072,-7.216 -6.216,-7.216L-8.681,-7.216L-8.681,7.008L-6.693,7.008C-2.231,7.008 0,4.613 0,-0.178M4.811,-0.298C4.811,3.298 3.787,6.052 1.74,7.965C-0.307,9.877 -3.263,10.833 -7.127,10.833L-13.313,10.833L-13.313,-11.011L-6.454,-11.011C-2.889,-11.011 -0.12,-10.069 1.853,-8.186C3.824,-6.304 4.811,-3.675 4.811,-0.298" style="fill:rgb(0,53,78);fill-rule:nonzero;"/>
        </g>
        <g transform="matrix(1.17672,0,0,3.87513,-264.94,-243.519)">
            <path d="M0,-10.831C-0.966,-10.831 -1.723,-10.525 -2.271,-9.912C-2.818,-9.3 -3.133,-8.431 -3.212,-7.305L3.183,-7.305C3.162,-8.431 2.869,-9.3 2.301,-9.912C1.733,-10.525 0.967,-10.831 0,-10.831M0.643,3.243C-2.047,3.243 -4.148,2.501 -5.662,1.017C-7.177,-0.467 -7.934,-2.569 -7.934,-5.289C-7.934,-8.087 -7.233,-10.251 -5.834,-11.78C-4.435,-13.309 -2.5,-14.074 -0.03,-14.074C2.331,-14.074 4.169,-13.401 5.483,-12.057C6.798,-10.712 7.455,-8.854 7.455,-6.484L7.455,-4.272L-3.316,-4.272C-3.267,-2.977 -2.883,-1.966 -2.166,-1.239C-1.449,-0.512 -0.443,-0.149 0.852,-0.149C1.857,-0.149 2.81,-0.253 3.706,-0.462C4.603,-0.671 5.538,-1.005 6.515,-1.463L6.515,2.063C5.718,2.461 4.865,2.757 3.96,2.952C3.053,3.146 1.947,3.243 0.643,3.243" style="fill:rgb(0,53,78);fill-rule:nonzero;"/>
        </g>
        <g transform="matrix(-1.17672,0,0,3.87513,-152.953,-5064.76)">
            <rect x="79.757" y="1223.85" width="4.557" height="23.248" style="fill:rgb(0,53,78);"/>
        </g>
        <g transform="matrix(-1.17672,0,0,3.87513,-131.696,-5039.4)">
            <rect x="88.789" y="1223.85" width="4.557" height="16.704" style="fill:rgb(0,53,78);"/>
        </g>
        <g transform="matrix(1.17672,0,0,3.87513,-226.233,-296.839)">
            <path d="M0,16.704L-6.365,0L-1.599,0L1.628,9.517C1.987,10.723 2.211,11.863 2.301,12.939L2.39,12.939C2.439,11.983 2.664,10.842 3.063,9.517L6.274,0L11.04,0L4.676,16.704L0,16.704Z" style="fill:rgb(0,53,78);fill-rule:nonzero;"/>
        </g>
        <g transform="matrix(1.17672,0,0,3.87513,-202.649,-243.519)">
            <path d="M0,-10.831C-0.966,-10.831 -1.723,-10.525 -2.271,-9.912C-2.818,-9.3 -3.133,-8.431 -3.212,-7.305L3.183,-7.305C3.162,-8.431 2.869,-9.3 2.301,-9.912C1.733,-10.525 0.966,-10.831 0,-10.831M0.643,3.243C-2.047,3.243 -4.148,2.501 -5.662,1.017C-7.177,-0.467 -7.934,-2.569 -7.934,-5.289C-7.934,-8.087 -7.233,-10.251 -5.834,-11.78C-4.435,-13.309 -2.5,-14.074 -0.03,-14.074C2.331,-14.074 4.169,-13.401 5.483,-12.057C6.798,-10.712 7.455,-8.854 7.455,-6.484L7.455,-4.272L-3.316,-4.272C-3.267,-2.977 -2.884,-1.966 -2.166,-1.239C-1.449,-0.512 -0.443,-0.149 0.852,-0.149C1.857,-0.149 2.81,-0.253 3.706,-0.462C4.603,-0.671 5.538,-1.005 6.515,-1.463L6.515,2.063C5.718,2.461 4.865,2.757 3.959,2.952C3.053,3.146 1.947,3.243 0.643,3.243" style="fill:rgb(0,53,78);fill-rule:nonzero;"/>
        </g>
        <g transform="matrix(1.17672,0,0,3.87513,-178.906,-232.109)">
            <path d="M0,-17.018C0.617,-17.018 1.13,-16.973 1.539,-16.883L1.195,-12.61C0.826,-12.709 0.378,-12.76 -0.149,-12.76C-1.604,-12.76 -2.737,-12.386 -3.549,-11.639C-4.36,-10.892 -4.767,-9.847 -4.767,-8.501L-4.767,0L-9.323,0L-9.323,-16.704L-5.872,-16.704L-5.199,-13.895L-4.976,-13.895C-4.458,-14.831 -3.758,-15.586 -2.876,-16.159C-1.995,-16.731 -1.036,-17.018 0,-17.018" style="fill:rgb(0,53,78);fill-rule:nonzero;"/>
        </g>
        <g transform="matrix(1.17672,0,0,3.87513,-176.699,-203.623)">
            <path d="M0,-24.055L4.99,-24.055L8.143,-14.657C8.412,-13.84 8.596,-12.874 8.695,-11.759L8.785,-11.759C8.895,-12.784 9.109,-13.751 9.428,-14.657L12.521,-24.055L17.406,-24.055L10.339,-5.214C9.691,-3.472 8.768,-2.166 7.567,-1.301C6.367,-0.433 4.966,0 3.361,0C2.575,0 1.803,-0.085 1.046,-0.254L1.046,-3.87C1.594,-3.741 2.191,-3.676 2.839,-3.676C3.646,-3.676 4.351,-3.922 4.953,-4.415C5.556,-4.908 6.026,-5.653 6.365,-6.649L6.634,-7.471L0,-24.055Z" style="fill:rgb(0,53,78);fill-rule:nonzero;"/>
        </g>
        <g transform="matrix(1.17672,0,0,3.87513,-141.326,-281.903)">
            <path d="M0,3.765C-1.465,-0.946 -2.289,-3.61 -2.473,-4.228C-2.657,-4.846 -2.789,-5.333 -2.868,-5.692C-3.197,-4.417 -4.139,-1.264 -5.692,3.765L0,3.765ZM2.689,12.849L1.105,7.65L-6.857,7.65L-8.441,12.849L-13.432,12.849L-5.723,-9.084L-0.06,-9.084L7.679,12.849L2.689,12.849Z" style="fill:rgb(0,53,78);fill-rule:nonzero;"/>
        </g>
        <g transform="matrix(1.17672,0,0,3.87513,-111.693,-298.056)">
            <path d="M0,17.018L-4.557,17.018L-4.557,7.262C-4.557,6.056 -4.771,5.152 -5.199,4.55C-5.628,3.947 -6.31,3.645 -7.246,3.645C-8.521,3.645 -9.442,4.072 -10.01,4.923C-10.578,5.775 -10.862,7.186 -10.862,9.159L-10.862,17.018L-15.419,17.018L-15.419,0.314L-11.938,0.314L-11.325,2.45L-11.07,2.45C-10.563,1.644 -9.863,1.034 -8.972,0.62C-8.08,0.207 -7.066,0 -5.932,0C-3.989,0 -2.516,0.526 -1.509,1.577C-0.503,2.627 0,4.144 0,6.126L0,17.018Z" style="fill:rgb(0,53,78);fill-rule:nonzero;"/>
        </g>
        <g transform="matrix(1.17672,0,0,3.87513,-102.649,-226.033)">
            <path d="M0,-12.804C0,-11.897 0.207,-11.18 0.62,-10.653C1.033,-10.124 1.664,-9.861 2.51,-9.861C3.367,-9.861 3.994,-10.124 4.394,-10.653C4.791,-11.18 4.991,-11.897 4.991,-12.804C4.991,-14.816 4.164,-15.822 2.51,-15.822C0.837,-15.822 0,-14.816 0,-12.804M-1.658,0.792C-1.658,1.42 -1.356,1.912 -0.754,2.271C-0.151,2.63 0.692,2.809 1.778,2.809C3.412,2.809 4.692,2.585 5.618,2.137C6.545,1.689 7.008,1.076 7.008,0.299C7.008,-0.328 6.733,-0.762 6.186,-1.001C5.638,-1.24 4.791,-1.359 3.646,-1.359L1.285,-1.359C0.449,-1.359 -0.251,-1.162 -0.814,-0.769C-1.377,-0.376 -1.658,0.145 -1.658,0.792M11.235,-18.272L11.235,-15.956L8.621,-15.284C9.1,-14.537 9.338,-13.7 9.338,-12.774C9.338,-10.981 8.713,-9.584 7.463,-8.583C6.213,-7.582 4.478,-7.081 2.257,-7.081L1.435,-7.126L0.763,-7.201C0.294,-6.842 0.06,-6.444 0.06,-6.006C0.06,-5.348 0.896,-5.02 2.57,-5.02L5.409,-5.02C7.241,-5.02 8.639,-4.626 9.6,-3.839C10.561,-3.053 11.041,-1.897 11.041,-0.373C11.041,1.579 10.228,3.093 8.599,4.169C6.971,5.244 4.632,5.782 1.584,5.782C-0.746,5.782 -2.527,5.377 -3.757,4.565C-4.987,3.753 -5.603,2.615 -5.603,1.151C-5.603,0.145 -5.288,-0.697 -4.661,-1.374C-4.033,-2.052 -3.112,-2.534 -1.897,-2.824C-2.365,-3.022 -2.773,-3.349 -3.122,-3.802C-3.471,-4.255 -3.646,-4.736 -3.646,-5.244C-3.646,-5.881 -3.461,-6.411 -3.092,-6.835C-2.724,-7.258 -2.19,-7.674 -1.494,-8.082C-2.37,-8.461 -3.065,-9.069 -3.578,-9.905C-4.091,-10.742 -4.348,-11.728 -4.348,-12.864C-4.348,-14.686 -3.755,-16.096 -2.569,-17.092C-1.384,-18.088 0.31,-18.586 2.51,-18.586C2.979,-18.586 3.534,-18.543 4.176,-18.459C4.818,-18.374 5.229,-18.312 5.409,-18.272L11.235,-18.272Z" style="fill:rgb(0,53,78);fill-rule:nonzero;"/>
        </g>
        <g transform="matrix(1.17672,0,0,3.87513,-78.4119,-243.519)">
            <path d="M0,-10.831C-0.967,-10.831 -1.724,-10.525 -2.271,-9.912C-2.819,-9.3 -3.133,-8.431 -3.213,-7.305L3.182,-7.305C3.162,-8.431 2.868,-9.3 2.3,-9.912C1.733,-10.525 0.966,-10.831 0,-10.831M0.642,3.243C-2.047,3.243 -4.149,2.501 -5.663,1.017C-7.177,-0.467 -7.934,-2.569 -7.934,-5.289C-7.934,-8.087 -7.234,-10.251 -5.835,-11.78C-4.436,-13.309 -2.501,-14.074 -0.03,-14.074C2.33,-14.074 4.168,-13.401 5.482,-12.057C6.798,-10.712 7.455,-8.854 7.455,-6.484L7.455,-4.272L-3.317,-4.272C-3.268,-2.977 -2.884,-1.966 -2.167,-1.239C-1.449,-0.512 -0.443,-0.149 0.852,-0.149C1.857,-0.149 2.809,-0.253 3.705,-0.462C4.602,-0.671 5.537,-1.005 6.514,-1.463L6.514,2.063C5.717,2.461 4.865,2.757 3.959,2.952C3.053,3.146 1.946,3.243 0.642,3.243" style="fill:rgb(0,53,78);fill-rule:nonzero;"/>
        </g>
        <g transform="matrix(-1.17672,0,0,3.87513,220.102,-5064.76)">
            <rect x="238.271" y="1223.85" width="4.557" height="23.248" style="fill:rgb(0,53,78);"/>
        </g>
        <g transform="matrix(1.17672,0,0,3.87513,-41.2981,-277.679)">
            <path d="M0,6.799C0,8.512 -0.596,9.817 -1.785,10.714C-2.976,11.61 -4.756,12.058 -7.126,12.058C-8.342,12.058 -9.378,11.976 -10.234,11.812C-11.091,11.647 -11.893,11.406 -12.64,11.087L-12.64,7.322C-11.793,7.72 -10.84,8.054 -9.778,8.323C-8.718,8.592 -7.784,8.726 -6.978,8.726C-5.324,8.726 -4.497,8.248 -4.497,7.292C-4.497,6.933 -4.606,6.642 -4.826,6.418C-5.045,6.194 -5.424,5.94 -5.962,5.656C-6.499,5.372 -7.217,5.041 -8.113,4.662C-9.397,4.124 -10.342,3.627 -10.944,3.168C-11.547,2.71 -11.985,2.185 -12.259,1.592C-12.532,1 -12.67,0.27 -12.67,-0.597C-12.67,-2.081 -12.095,-3.229 -10.944,-4.041C-9.794,-4.852 -8.163,-5.259 -6.051,-5.259C-4.039,-5.259 -2.082,-4.82 -0.18,-3.944L-1.554,-0.657C-2.391,-1.015 -3.173,-1.309 -3.899,-1.538C-4.627,-1.767 -5.369,-1.882 -6.126,-1.882C-7.471,-1.882 -8.143,-1.518 -8.143,-0.791C-8.143,-0.382 -7.926,-0.029 -7.493,0.27C-7.06,0.569 -6.11,1.012 -4.646,1.599C-3.342,2.128 -2.386,2.62 -1.778,3.079C-1.171,3.537 -0.723,4.065 -0.433,4.662C-0.145,5.26 0,5.972 0,6.799" style="fill:rgb(0,53,78);fill-rule:nonzero;"/>
        </g>
    </g>
</svg>
