<?xml version="1.0" encoding="UTF-8" standalone="no"?>
<!DOCTYPE svg PUBLIC "-//W3C//DTD SVG 1.1//EN" "http://www.w3.org/Graphics/SVG/1.1/DTD/svg11.dtd">
<svg width="100%" height="100%" viewBox="0 0 75 68" version="1.1" xmlns="http://www.w3.org/2000/svg" xmlns:xlink="http://www.w3.org/1999/xlink" xml:space="preserve" xmlns:serif="http://www.serif.com/" style="fill-rule:evenodd;clip-rule:evenodd;stroke-linejoin:round;">
    <g transform="matrix(1,0,0,1,-46.9523,-15.2476)">
        <g transform="matrix(1,0,0,1,1,1)">
            <g id="Page-1">
                <g id="Artboard">
                    <g id="Group-12">
                        <path id="Fill-7" d="M115.74,22.592C115.74,22.592 108.895,15.748 88.364,15.748C67.832,15.748 60.988,22.592 60.988,22.592C60.988,22.592 60.706,22.82 60.307,23.227C60.245,23.286 60.179,23.353 60.109,23.425C60.049,23.483 59.983,23.549 59.915,23.619C59.853,23.678 59.787,23.745 59.717,23.817C59.656,23.876 59.592,23.941 59.523,24.011C59.462,24.071 59.395,24.137 59.326,24.208C59.264,24.267 59.198,24.334 59.129,24.405C59.068,24.464 59.004,24.529 58.934,24.599C58.873,24.659 58.806,24.726 58.736,24.797C58.676,24.856 58.611,24.921 58.543,24.991C58.48,25.051 58.415,25.118 58.344,25.189C58.284,25.248 58.219,25.314 58.15,25.384C58.089,25.443 58.022,25.51 57.952,25.581C57.891,25.64 57.827,25.706 57.759,25.776C57.697,25.835 57.631,25.902 57.561,25.972C57.5,26.032 57.433,26.098 57.364,26.17C57.303,26.228 57.238,26.294 57.17,26.364C57.108,26.424 57.042,26.49 56.971,26.562C56.911,26.621 56.846,26.686 56.778,26.756C56.716,26.816 56.65,26.883 56.58,26.954C56.519,27.013 56.454,27.078 56.386,27.148C56.324,27.208 56.258,27.275 56.187,27.346C56.127,27.405 56.062,27.47 55.993,27.54C55.931,27.6 55.866,27.667 55.796,27.738C55.735,27.797 55.67,27.863 55.601,27.932C55.54,27.992 55.474,28.058 55.404,28.13C55.343,28.189 55.277,28.256 55.207,28.326C55.146,28.385 55.082,28.451 55.013,28.521C54.951,28.581 54.886,28.647 54.815,28.718C54.755,28.778 54.689,28.843 54.621,28.913C54.559,28.973 54.493,29.039 54.423,29.111C54.362,29.17 54.298,29.235 54.228,29.305C54.167,29.365 54.1,29.431 54.031,29.503C53.97,29.562 53.905,29.627 53.837,29.697C53.775,29.757 53.709,29.823 53.639,29.894C53.578,29.954 53.512,30.02 53.442,30.091C53.382,30.15 53.317,30.216 53.248,30.285C53.186,30.345 53.121,30.412 53.051,30.484C52.99,30.542 52.925,30.608 52.856,30.677C52.795,30.738 52.728,30.804 52.658,30.876C52.597,30.934 52.533,31 52.464,31.07C52.402,31.13 52.336,31.196 52.266,31.268C52.206,31.326 52.14,31.392 52.072,31.462C52.01,31.522 51.944,31.588 51.874,31.66C51.813,31.718 51.749,31.784 51.679,31.854C51.618,31.914 51.552,31.98 51.482,32.051C51.421,32.111 51.355,32.177 51.286,32.248C51.225,32.307 51.16,32.372 51.092,32.442C51.03,32.502 50.964,32.569 50.893,32.64C50.833,32.699 50.768,32.764 50.699,32.834C50.637,32.894 50.571,32.961 50.502,33.032C49.534,33.97 47.452,36.343 47.452,39.421C47.452,43.551 50.988,47.37 50.988,47.37L50.988,74.574C50.988,77.847 53.64,80.5 56.914,80.5L99.813,80.5C101.5,80.5 103.018,79.792 104.097,78.661C104.165,78.598 104.229,78.532 104.293,78.466C104.36,78.402 104.426,78.336 104.49,78.269C104.556,78.205 104.622,78.14 104.685,78.073C104.753,78.009 104.818,77.945 104.882,77.877C104.949,77.813 105.014,77.748 105.078,77.681C105.144,77.617 105.21,77.552 105.273,77.486C105.341,77.421 105.406,77.356 105.47,77.289C105.537,77.225 105.602,77.16 105.666,77.093C105.733,77.029 105.799,76.964 105.862,76.897C105.929,76.833 105.994,76.768 106.057,76.701C106.125,76.637 106.19,76.571 106.255,76.505C106.321,76.441 106.386,76.376 106.45,76.309C106.517,76.245 106.583,76.179 106.646,76.113C106.714,76.049 106.779,75.983 106.843,75.917C106.909,75.853 106.974,75.787 107.038,75.72C107.105,75.656 107.171,75.591 107.235,75.524C107.302,75.46 107.367,75.395 107.43,75.328C107.498,75.264 107.563,75.199 107.627,75.132C107.694,75.068 107.759,75.003 107.823,74.936C107.889,74.872 107.955,74.807 108.019,74.74C108.086,74.676 108.151,74.611 108.215,74.544C108.282,74.48 108.347,74.415 108.411,74.348C108.478,74.284 108.543,74.219 108.607,74.152C108.674,74.088 108.739,74.023 108.803,73.956C108.87,73.892 108.935,73.826 109,73.759C109.066,73.696 109.132,73.631 109.195,73.564C109.262,73.5 109.328,73.434 109.391,73.367C109.459,73.303 109.523,73.238 109.588,73.172C109.654,73.108 109.719,73.042 109.784,72.975C109.85,72.911 109.916,72.846 109.979,72.78C110.047,72.716 110.112,72.65 110.176,72.583C110.243,72.519 110.308,72.454 110.372,72.387C110.439,72.323 110.504,72.258 110.568,72.191C110.635,72.127 110.7,72.062 110.764,71.995C110.831,71.931 110.896,71.866 110.96,71.799C111.027,71.735 111.093,71.67 111.156,71.603C111.223,71.539 111.288,71.474 111.352,71.407C111.419,71.343 111.484,71.278 111.549,71.21C111.615,71.147 111.68,71.082 111.744,71.015C111.811,70.951 111.877,70.885 111.941,70.818C112.008,70.755 112.073,70.69 112.136,70.623C112.204,70.559 112.268,70.493 112.333,70.426C112.399,70.363 112.465,70.297 112.528,70.231C112.595,70.166 112.661,70.101 112.724,70.034C112.792,69.97 112.857,69.905 112.921,69.838C112.988,69.774 113.053,69.709 113.117,69.642C113.184,69.578 113.249,69.513 113.313,69.446C113.38,69.382 113.445,69.317 113.509,69.25C113.576,69.186 113.641,69.121 113.706,69.053C113.772,68.99 113.838,68.925 113.901,68.858C115.032,67.779 115.74,66.26 115.74,64.574L115.74,37.37C115.74,37.37 119.275,33.551 119.275,29.421C119.275,25.415 115.74,22.592 115.74,22.592Z" style="fill:rgb(243,248,238);"/>
                        <path id="Stroke-8" d="M115.74,22.592C115.74,22.592 108.895,15.748 88.364,15.748C67.832,15.748 60.988,22.592 60.988,22.592C60.988,22.592 60.706,22.82 60.307,23.227C60.245,23.286 60.179,23.353 60.109,23.425C60.049,23.483 59.983,23.549 59.915,23.619C59.853,23.678 59.787,23.745 59.717,23.817C59.656,23.876 59.592,23.941 59.523,24.011C59.462,24.071 59.395,24.137 59.326,24.208C59.264,24.267 59.198,24.334 59.129,24.405C59.068,24.464 59.004,24.529 58.934,24.599C58.873,24.659 58.806,24.726 58.736,24.797C58.676,24.856 58.611,24.921 58.543,24.991C58.48,25.051 58.415,25.118 58.344,25.189C58.284,25.248 58.219,25.314 58.15,25.384C58.089,25.443 58.022,25.51 57.952,25.581C57.891,25.64 57.827,25.706 57.759,25.776C57.697,25.835 57.631,25.902 57.561,25.972C57.5,26.032 57.433,26.098 57.364,26.17C57.303,26.228 57.238,26.294 57.17,26.364C57.108,26.424 57.042,26.49 56.971,26.562C56.911,26.621 56.846,26.686 56.778,26.756C56.716,26.816 56.65,26.883 56.58,26.954C56.519,27.013 56.454,27.078 56.386,27.148C56.324,27.208 56.258,27.275 56.187,27.346C56.127,27.405 56.062,27.47 55.993,27.54C55.931,27.6 55.866,27.667 55.796,27.738C55.735,27.797 55.67,27.863 55.601,27.932C55.54,27.992 55.474,28.058 55.404,28.13C55.343,28.189 55.277,28.256 55.207,28.326C55.146,28.385 55.082,28.451 55.013,28.521C54.951,28.581 54.886,28.647 54.815,28.718C54.755,28.778 54.689,28.843 54.621,28.913C54.559,28.973 54.493,29.039 54.423,29.111C54.362,29.17 54.298,29.235 54.228,29.305C54.167,29.365 54.1,29.431 54.031,29.503C53.97,29.562 53.905,29.627 53.837,29.697C53.775,29.757 53.709,29.823 53.639,29.894C53.578,29.954 53.512,30.02 53.442,30.091C53.382,30.15 53.317,30.216 53.248,30.285C53.186,30.345 53.121,30.412 53.051,30.484C52.99,30.542 52.925,30.608 52.856,30.677C52.795,30.738 52.728,30.804 52.658,30.876C52.597,30.934 52.533,31 52.464,31.07C52.402,31.13 52.336,31.196 52.266,31.268C52.206,31.326 52.14,31.392 52.072,31.462C52.01,31.522 51.944,31.588 51.874,31.66C51.813,31.718 51.749,31.784 51.679,31.854C51.618,31.914 51.552,31.98 51.482,32.051C51.421,32.111 51.355,32.177 51.286,32.248C51.225,32.307 51.16,32.372 51.092,32.442C51.03,32.502 50.964,32.569 50.893,32.64C50.833,32.699 50.768,32.764 50.699,32.834C50.637,32.894 50.571,32.961 50.502,33.032C49.534,33.97 47.452,36.343 47.452,39.421C47.452,43.551 50.988,47.37 50.988,47.37L50.988,74.574C50.988,77.847 53.64,80.5 56.914,80.5L99.813,80.5C101.5,80.5 103.018,79.792 104.097,78.661C104.165,78.598 104.229,78.532 104.293,78.466C104.36,78.402 104.426,78.336 104.49,78.269C104.556,78.205 104.622,78.14 104.685,78.073C104.753,78.009 104.818,77.945 104.882,77.877C104.949,77.813 105.014,77.748 105.078,77.681C105.144,77.617 105.21,77.552 105.273,77.486C105.341,77.421 105.406,77.356 105.47,77.289C105.537,77.225 105.602,77.16 105.666,77.093C105.733,77.029 105.799,76.964 105.862,76.897C105.929,76.833 105.994,76.768 106.057,76.701C106.125,76.637 106.19,76.571 106.255,76.505C106.321,76.441 106.386,76.376 106.45,76.309C106.517,76.245 106.583,76.179 106.646,76.113C106.714,76.049 106.779,75.983 106.843,75.917C106.909,75.853 106.974,75.787 107.038,75.72C107.105,75.656 107.171,75.591 107.235,75.524C107.302,75.46 107.367,75.395 107.43,75.328C107.498,75.264 107.563,75.199 107.627,75.132C107.694,75.068 107.759,75.003 107.823,74.936C107.889,74.872 107.955,74.807 108.019,74.74C108.086,74.676 108.151,74.611 108.215,74.544C108.282,74.48 108.347,74.415 108.411,74.348C108.478,74.284 108.543,74.219 108.607,74.152C108.674,74.088 108.739,74.023 108.803,73.956C108.87,73.892 108.935,73.826 109,73.759C109.066,73.696 109.132,73.631 109.195,73.564C109.262,73.5 109.328,73.434 109.391,73.367C109.459,73.303 109.523,73.238 109.588,73.172C109.654,73.108 109.719,73.042 109.784,72.975C109.85,72.911 109.916,72.846 109.979,72.78C110.047,72.716 110.112,72.65 110.176,72.583C110.243,72.519 110.308,72.454 110.372,72.387C110.439,72.323 110.504,72.258 110.568,72.191C110.635,72.127 110.7,72.062 110.764,71.995C110.831,71.931 110.896,71.866 110.96,71.799C111.027,71.735 111.093,71.67 111.156,71.603C111.223,71.539 111.288,71.474 111.352,71.407C111.419,71.343 111.484,71.278 111.549,71.21C111.615,71.147 111.68,71.082 111.744,71.015C111.811,70.951 111.877,70.885 111.941,70.818C112.008,70.755 112.073,70.69 112.136,70.623C112.204,70.559 112.268,70.493 112.333,70.426C112.399,70.363 112.465,70.297 112.528,70.231C112.595,70.166 112.661,70.101 112.724,70.034C112.792,69.97 112.857,69.905 112.921,69.838C112.988,69.774 113.053,69.709 113.117,69.642C113.184,69.578 113.249,69.513 113.313,69.446C113.38,69.382 113.445,69.317 113.509,69.25C113.576,69.186 113.641,69.121 113.706,69.053C113.772,68.99 113.838,68.925 113.901,68.858C115.032,67.779 115.74,66.26 115.74,64.574L115.74,37.37C115.74,37.37 119.275,33.551 119.275,29.421C119.275,25.415 115.74,22.592 115.74,22.592Z" style="fill:none;stroke:rgb(132,189,87);stroke-width:3px;"/>
                        <path id="Fill-9" d="M105.74,32.592C105.74,32.592 98.895,25.748 78.364,25.748C57.832,25.748 50.988,32.592 50.988,32.592C50.988,32.592 47.452,35.415 47.452,39.421C47.452,43.551 50.988,47.37 50.988,47.37L50.988,74.574C50.988,77.847 53.64,80.5 56.914,80.5L99.813,80.5C103.087,80.5 105.74,77.847 105.74,74.574L105.74,47.37C105.74,47.37 109.275,43.551 109.275,39.421C109.275,35.415 105.74,32.592 105.74,32.592Z" style="fill:white;"/>
                        <path id="Stroke-10" d="M105.74,32.592C105.74,32.592 98.895,25.748 78.364,25.748C57.832,25.748 50.988,32.592 50.988,32.592C50.988,32.592 47.452,35.415 47.452,39.421C47.452,43.551 50.988,47.37 50.988,47.37L50.988,74.574C50.988,77.847 53.64,80.5 56.914,80.5L99.813,80.5C103.087,80.5 105.74,77.847 105.74,74.574L105.74,47.37C105.74,47.37 109.275,43.551 109.275,39.421C109.275,35.415 105.74,32.592 105.74,32.592Z" style="fill:none;stroke:rgb(132,189,87);stroke-width:3px;"/>
                        <path id="Stroke-11" d="M105.74,47.369L115.74,37.369" style="fill:none;stroke:rgb(132,189,87);stroke-width:3px;"/>
                    </g>
                </g>
            </g>
        </g>
    </g>
</svg>
