<?xml version="1.0" encoding="UTF-8" standalone="no"?>
<!DOCTYPE svg PUBLIC "-//W3C//DTD SVG 1.1//EN" "http://www.w3.org/Graphics/SVG/1.1/DTD/svg11.dtd">
<svg width="100%" height="100%" viewBox="0 0 48 32" version="1.1" xmlns="http://www.w3.org/2000/svg" xmlns:xlink="http://www.w3.org/1999/xlink" xml:space="preserve" xmlns:serif="http://www.serif.com/" style="fill-rule:evenodd;clip-rule:evenodd;stroke-linejoin:round;stroke-miterlimit:10;">
    <g transform="matrix(1,0,0,1,-1441.08,-1167.21)">
        <g id="Page-4" serif:id="Page 4" transform="matrix(1,0,0,1,1350,3.64122)">
            <rect x="0" y="0" width="400" height="2058.88" style="fill:none;"/>
            <g id="content">
                <g transform="matrix(1,0,0,1,117.766,1194.03)">
                    <path d="M0,-29.376C0,-27.285 -1.695,-25.59 -3.786,-25.59C-5.877,-25.59 -7.571,-27.285 -7.571,-29.376L-25.603,-29.376L-25.603,-22.097C-25.191,-22.178 -24.768,-22.223 -24.333,-22.223C-20.749,-22.223 -17.844,-19.317 -17.844,-15.733C-17.844,-12.189 -20.686,-9.314 -24.213,-9.25C-24.646,-8.965 -25.105,-8.715 -25.603,-8.539L-25.603,0L19.666,0L19.666,-29.376L0,-29.376Z" style="fill:rgb(243,248,238);fill-rule:nonzero;stroke:rgb(132,189,87);stroke-width:2.16px;"/>
                </g>
                <g transform="matrix(0,-1,-1,0,107.914,1181.54)">
                    <ellipse cx="-3.245" cy="0" rx="3.245" ry="3.245" style="fill:none;stroke:rgb(132,189,87);stroke-width:2.16px;"/>
                </g>
            </g>
            <g id="nav-bar" serif:id="nav bar">
            </g>
        </g>
    </g>
</svg>
