<?xml version="1.0" encoding="UTF-8"?>
<svg width="64px" height="67px" viewBox="0 0 64 67" version="1.1" xmlns="http://www.w3.org/2000/svg" xmlns:xlink="http://www.w3.org/1999/xlink">
    <title>Group 11</title>
    <g id="Page-1" stroke="none" stroke-width="1" fill="none" fill-rule="evenodd">
        <g id="Artboard" transform="translate(-70.000000, -694.000000)">
            <g id="Group-11" transform="translate(71.000000, 695.000000)">
                <polygon id="Fill-1" fill="#E7F2DD" points="26.1934 18.6732 1.1634 18.6732 6.6094 10.9332 7.2914 5.2462 18.9844 5.2462 19.6664 10.7302"></polygon>
                <polygon id="Fill-2" fill="#84BD57" points="6.6093 5.2465 19.6663 5.2465 19.6663 0.0815 6.6093 0.0815"></polygon>
                <polygon id="Stroke-3" stroke="#84BD57" stroke-width="2.163" stroke-linejoin="round" points="6.6093 5.2465 19.6663 5.2465 19.6663 0.0815 6.6093 0.0815"></polygon>
                <path d="M18.9845,9.3758 L18.9845,5.2468 L7.2915,5.2468 L7.2915,9.3758 C7.2915,10.8998 6.0125,12.3658 4.9405,13.4488 C0.0815,18.3598 0.0815,18.9148 0.0815,24.8308 L0.0815,60.3728 C0.0815,62.3758 1.7055,63.9988 3.7085,63.9988 L22.5675,63.9988 C24.5705,63.9988 26.1935,62.3758 26.1935,60.3728 L26.1935,24.8308 C26.1935,18.9148 26.1935,18.3598 21.3355,13.4488 C20.2625,12.3658 18.9845,10.8998 18.9845,9.3758 Z" id="Stroke-4" stroke="#84BD57" stroke-width="2.163" stroke-linejoin="round"></path>
                <line x1="1.1632" y1="18.3026" x2="25.1122" y2="18.3026" id="Stroke-5" stroke="#84BD57" stroke-width="2.163" stroke-linecap="round" stroke-linejoin="round"></line>
                <path d="M28.963,43.3138 C28.963,42.4178 28.236,41.6918 27.341,41.6918 C26.444,41.6918 25.718,42.4178 25.718,43.3138 C25.718,44.2098 26.444,44.9368 27.341,44.9368 C28.236,44.9368 28.963,44.2098 28.963,43.3138" id="Fill-6" fill="#84BD57"></path>
                <path d="M41.5186,34.6224 C41.5186,36.7134 39.8236,38.4084 37.7326,38.4084 C35.6416,38.4084 33.9476,36.7134 33.9476,34.6224 L15.9156,34.6224 L15.9156,41.9014 C16.3276,41.8204 16.7506,41.7754 17.1856,41.7754 C20.7696,41.7754 23.6746,44.6814 23.6746,48.2654 C23.6746,51.8094 20.8326,54.6844 17.3056,54.7484 C16.8726,55.0334 16.4136,55.2834 15.9156,55.4594 L15.9156,63.9984 L61.1846,63.9984 L61.1846,34.6224 L41.5186,34.6224 Z" id="Fill-7" fill="#F3F8EE"></path>
                <path d="M41.5186,34.6224 C41.5186,36.7134 39.8236,38.4084 37.7326,38.4084 C35.6416,38.4084 33.9476,36.7134 33.9476,34.6224 L15.9156,34.6224 L15.9156,41.9014 C16.3276,41.8204 16.7506,41.7754 17.1856,41.7754 C20.7696,41.7754 23.6746,44.6814 23.6746,48.2654 C23.6746,51.8094 20.8326,54.6844 17.3056,54.7484 C16.8726,55.0334 16.4136,55.2834 15.9156,55.4594 L15.9156,63.9984 L61.1846,63.9984 L61.1846,34.6224 L41.5186,34.6224 Z" id="Stroke-8" stroke="#84BD57" stroke-width="2.163" stroke-linejoin="round"></path>
                <path d="M34.9112,54.7547 C34.9112,52.9627 33.4592,51.5097 31.6672,51.5097 C29.8752,51.5097 28.4222,52.9627 28.4222,54.7547 C28.4222,56.5467 29.8752,57.9997 31.6672,57.9997 C33.4592,57.9997 34.9112,56.5467 34.9112,54.7547" id="Fill-9" fill="#FFFFFF"></path>
                <path d="M34.9112,54.7547 C34.9112,52.9637 33.4574,51.5097 31.6667,51.5097 C29.876,51.5097 28.4222,52.9637 28.4222,54.7547 C28.4222,56.5457 29.876,57.9997 31.6667,57.9997 C33.4574,57.9997 34.9112,56.5457 34.9112,54.7547 Z" id="Stroke-10" stroke="#84BD57" stroke-width="2.163" stroke-linejoin="round"></path>
            </g>
        </g>
    </g>
</svg>