<?xml version="1.0" encoding="UTF-8"?>
<svg width="123px" height="97px" viewBox="0 0 123 97" version="1.1" xmlns="http://www.w3.org/2000/svg" xmlns:xlink="http://www.w3.org/1999/xlink">
    <title>Group 12</title>
    <g id="Page-1" stroke="none" stroke-width="1" fill="none" fill-rule="evenodd">
        <g id="Artboard" transform="translate(-24.000000, -225.000000)">
            <g id="Group-12" transform="translate(25.000000, 226.000000)">
                <path d="M45.4305,54.7371 C45.4305,65.4681 28.6305,82.8441 24.0805,87.3531 C23.4545,87.9731 22.4565,87.9731 21.8305,87.3531 C17.2815,82.8441 0.4815,65.4681 0.4815,54.7371 C0.4815,42.3241 10.5435,32.2621 22.9555,32.2621 C35.3675,32.2621 45.4305,42.3241 45.4305,54.7371" id="Fill-1" fill="#FFFFFF"></path>
                <path d="M45.4305,54.7371 C45.4305,65.4681 28.6305,82.8441 24.0805,87.3531 C23.4545,87.9731 22.4565,87.9731 21.8305,87.3531 C17.2815,82.8441 0.4815,65.4681 0.4815,54.7371 C0.4815,42.3241 10.5435,32.2621 22.9555,32.2621 C35.3675,32.2621 45.4305,42.3241 45.4305,54.7371 Z" id="Stroke-2" stroke="#00354E" stroke-width="2.963" stroke-linejoin="round"></path>
                <path d="M34.1932,54.7371 C34.1932,60.9431 29.1622,65.9741 22.9562,65.9741 C16.7502,65.9741 11.7182,60.9431 11.7182,54.7371 C11.7182,48.5301 16.7502,43.5001 22.9562,43.5001 C29.1622,43.5001 34.1932,48.5301 34.1932,54.7371" id="Fill-3" fill="#EFFBFD"></path>
                <path d="M34.1932,54.7371 C34.1932,48.5352 29.1578,43.5001 22.9557,43.5001 C16.7536,43.5001 11.7182,48.5352 11.7182,54.7371 C11.7182,60.939 16.7536,65.9741 22.9557,65.9741 C29.1578,65.9741 34.1932,60.939 34.1932,54.7371 Z" id="Stroke-4" stroke="#00354E" stroke-width="2.963" stroke-linejoin="round"></path>
                <path d="M120.028,22.9569 C120.028,33.6889 103.227,51.0639 98.6771,55.5729 C98.0521,56.1929 97.0541,56.1929 96.4281,55.5729 C91.8791,51.0639 75.0781,33.6889 75.0781,22.9569 C75.0781,10.5449 85.1401,0.482 97.5531,0.482 C109.965,0.482 120.028,10.5449 120.028,22.9569" id="Fill-5" fill="#FFFFFF"></path>
                <path d="M120.028,22.9569 C120.028,33.6889 103.227,51.0639 98.6771,55.5729 C98.0521,56.1929 97.0541,56.1929 96.4281,55.5729 C91.8791,51.0639 75.0781,33.6889 75.0781,22.9569 C75.0781,10.5449 85.1401,0.482 97.5531,0.482 C109.965,0.482 120.028,10.5449 120.028,22.9569 Z" id="Stroke-6" stroke="#00354E" stroke-width="2.963" stroke-linejoin="round"></path>
                <path d="M108.791,22.9569 C108.791,29.1639 103.76,34.1949 97.5538,34.1949 C91.3468,34.1949 86.3158,29.1639 86.3158,22.9569 C86.3158,16.7509 91.3468,11.7199 97.5538,11.7199 C103.76,11.7199 108.791,16.7509 108.791,22.9569" id="Fill-7" fill="#EFFBFD"></path>
                <path d="M108.791,22.9574 C108.791,16.7553 103.755,11.7199 97.5533,11.7199 C91.3512,11.7199 86.3158,16.7553 86.3158,22.9574 C86.3158,29.1596 91.3512,34.1949 97.5533,34.1949 C103.755,34.1949 108.791,29.1596 108.791,22.9574 Z" id="Stroke-8" stroke="#00354E" stroke-width="2.963" stroke-linejoin="round"></path>
                <line x1="28.7967" y1="91.3636" x2="28.7967" y2="91.3636" id="Stroke-9" stroke="#84BD57" stroke-width="2.963" stroke-linecap="round"></line>
                <path d="M35.9353,92.9452 C45.8103,94.5192 59.0353,94.2752 70.0393,87.8182 C83.5923,79.8652 91.9633,70.6112 95.5143,65.1582" id="Stroke-10" stroke="#84BD57" stroke-width="2.963" stroke-linecap="round" stroke-dasharray="0.0001,7.316"></path>
                <line x1="97.2488" y1="61.9466" x2="97.2488" y2="61.9466" id="Stroke-11" stroke="#84BD57" stroke-width="2.963" stroke-linecap="round"></line>
            </g>
        </g>
    </g>
</svg>