<?xml version="1.0" encoding="UTF-8"?>
<svg width="59px" height="56px" viewBox="0 0 59 56" version="1.1" xmlns="http://www.w3.org/2000/svg" xmlns:xlink="http://www.w3.org/1999/xlink">
    <title>Group 4</title>
    <g id="Page-1" stroke="none" stroke-width="1" fill="none" fill-rule="evenodd">
        <g id="Artboard" transform="translate(-173.000000, -704.000000)">
            <g id="Group-4" transform="translate(175.000000, 705.000000)">
                <path d="M26.921,0.104999999 C26.921,0.104999999 17.225,0.103 13.986,7.565 C10.416,15.789 7.778,19.167 3.31,23.582 C-2.596,29.416 -0.279,43.145 9.76,44.632 C18.328,45.901 22.603,44.174 31.168,51.039 C39.734,57.902 52.615,48.652 54.365,42.149 C55.922,36.366 56.094,27.993 51.525,22.209 C47.256,16.803 48.907,10.348 47.052,7.107 C45.282,4.019 42.022,0.104999999 26.921,0.104999999 Z" id="Fill-1" fill="#FFFFFF"></path>
                <path d="M26.921,0.104999999 C26.921,0.104999999 17.225,0.103 13.986,7.565 C10.416,15.789 7.778,19.167 3.31,23.582 C-2.596,29.416 -0.279,43.145 9.76,44.632 C18.328,45.901 22.603,44.174 31.168,51.039 C39.734,57.902 52.615,48.652 54.365,42.149 C55.922,36.366 56.094,27.993 51.525,22.209 C47.256,16.803 48.907,10.348 47.052,7.107 C45.282,4.019 42.022,0.104999999 26.921,0.104999999 Z" id="Stroke-2" stroke="#84BD57" stroke-width="2.21" stroke-linejoin="round"></path>
                <path d="M39.7393,25.7686 C39.7393,19.3726 34.5543,14.1886 28.1593,14.1886 C21.7633,14.1886 16.5783,19.3726 16.5783,25.7686 C16.5783,32.1646 21.7633,37.3486 28.1593,37.3486 C34.5543,37.3486 39.7393,32.1646 39.7393,25.7686" id="Fill-3" fill="#84BD57"></path>
            </g>
        </g>
    </g>
</svg>