<?xml version="1.0" encoding="UTF-8"?>
<svg width="122px" height="83px" viewBox="0 0 122 83" version="1.1" xmlns="http://www.w3.org/2000/svg" xmlns:xlink="http://www.w3.org/1999/xlink">
    <title>Group 12</title>
    <g id="Page-1" stroke="none" stroke-width="1" fill="none" fill-rule="evenodd">
        <g id="Artboard" transform="translate(-156.000000, -15.000000)">
            <g id="Group-12" transform="translate(157.000000, 16.000000)">
                <polygon id="Fill-1" fill="#FFFFFF" points="1.5269 80.5 34.4389 80.5 34.4389 23.305 1.5269 23.305"></polygon>
                <polygon id="Fill-2" fill="#00354E" points="8.6699 6.964 27.3159 6.964 27.3159 0.5 8.6699 0.5"></polygon>
                <polygon id="Stroke-3" stroke="#00354E" stroke-width="3" stroke-linejoin="round" points="8.6699 6.964 27.3159 6.964 27.3159 0.5 8.6699 0.5"></polygon>
                <path d="M26.462,12.1321 L26.462,6.9641 L9.524,6.9641 L9.524,12.1321 C9.524,14.0401 7.923,15.8741 6.581,17.2311 C0.5,23.3771 0.5,24.0711 0.5,31.4761 L0.5,75.9601 C0.5,78.4671 2.532,80.5001 5.039,80.5001 L30.946,80.5001 C33.453,80.5001 35.485,78.4671 35.485,75.9601 L35.485,31.4761 C35.485,24.0711 35.485,23.3771 29.404,17.2311 C28.063,15.8741 26.462,14.0401 26.462,12.1321 Z" id="Stroke-4" stroke="#00354E" stroke-width="3" stroke-linejoin="round"></path>
                <line x1="0.5001" y1="23.305" x2="35.4851" y2="23.305" id="Stroke-5" stroke="#00354E" stroke-width="3" stroke-linejoin="round"></line>
                <polygon id="Stroke-6" stroke="#84BD57" stroke-width="3" stroke-linejoin="round" points="8.3779 66.878 27.6089 66.878 27.6089 36.129 8.3779 36.129"></polygon>
                <path d="M115.74,22.5916 C115.74,22.5916 108.895,15.7476 88.3643,15.7476 C67.8323,15.7476 60.9883,22.5916 60.9883,22.5916 C60.9883,22.5916 60.7063,22.8196 60.3073,23.2266 C60.2453,23.2856 60.1793,23.3526 60.1093,23.4246 C60.0493,23.4826 59.9833,23.5486 59.9153,23.6186 C59.8533,23.6776 59.7873,23.7446 59.7173,23.8166 C59.6563,23.8756 59.5923,23.9406 59.5233,24.0106 C59.4623,24.0706 59.3953,24.1366 59.3263,24.2076 C59.2643,24.2666 59.1983,24.3336 59.1293,24.4046 C59.0683,24.4636 59.0043,24.5286 58.9343,24.5986 C58.8733,24.6586 58.8063,24.7256 58.7363,24.7966 C58.6763,24.8556 58.6113,24.9206 58.5433,24.9906 C58.4803,25.0506 58.4153,25.1176 58.3443,25.1886 C58.2843,25.2476 58.2193,25.3136 58.1503,25.3836 C58.0893,25.4426 58.0223,25.5096 57.9523,25.5806 C57.8913,25.6396 57.8273,25.7056 57.7593,25.7756 C57.6973,25.8346 57.6313,25.9016 57.5613,25.9716 C57.5003,26.0316 57.4333,26.0976 57.3643,26.1696 C57.3033,26.2276 57.2383,26.2936 57.1703,26.3636 C57.1083,26.4236 57.0423,26.4896 56.9713,26.5616 C56.9113,26.6206 56.8463,26.6856 56.7783,26.7556 C56.7163,26.8156 56.6503,26.8826 56.5803,26.9536 C56.5193,27.0126 56.4543,27.0776 56.3863,27.1476 C56.3243,27.2076 56.2583,27.2746 56.1873,27.3456 C56.1273,27.4046 56.0623,27.4696 55.9933,27.5396 C55.9313,27.5996 55.8663,27.6666 55.7963,27.7376 C55.7353,27.7966 55.6703,27.8626 55.6013,27.9316 C55.5403,27.9916 55.4743,28.0576 55.4043,28.1296 C55.3433,28.1886 55.2773,28.2556 55.2073,28.3256 C55.1463,28.3846 55.0823,28.4506 55.0133,28.5206 C54.9513,28.5806 54.8863,28.6466 54.8153,28.7176 C54.7553,28.7776 54.6893,28.8426 54.6213,28.9126 C54.5593,28.9726 54.4933,29.0386 54.4233,29.1106 C54.3623,29.1696 54.2983,29.2346 54.2283,29.3046 C54.1673,29.3646 54.1003,29.4306 54.0313,29.5026 C53.9703,29.5616 53.9053,29.6266 53.8373,29.6966 C53.7753,29.7566 53.7093,29.8226 53.6393,29.8936 C53.5783,29.9536 53.5123,30.0196 53.4423,30.0906 C53.3823,30.1496 53.3173,30.2156 53.2483,30.2846 C53.1863,30.3446 53.1213,30.4116 53.0513,30.4836 C52.9903,30.5416 52.9253,30.6076 52.8563,30.6766 C52.7953,30.7376 52.7283,30.8036 52.6583,30.8756 C52.5973,30.9336 52.5333,30.9996 52.4643,31.0696 C52.4023,31.1296 52.3363,31.1956 52.2663,31.2676 C52.2063,31.3256 52.1403,31.3916 52.0723,31.4616 C52.0103,31.5216 51.9443,31.5876 51.8743,31.6596 C51.8133,31.7176 51.7493,31.7836 51.6793,31.8536 C51.6183,31.9136 51.5523,31.9796 51.4823,32.0506 C51.4213,32.1106 51.3553,32.1766 51.2863,32.2476 C51.2253,32.3066 51.1603,32.3716 51.0923,32.4416 C51.0303,32.5016 50.9643,32.5686 50.8933,32.6396 C50.8333,32.6986 50.7683,32.7636 50.6993,32.8336 C50.6373,32.8936 50.5713,32.9606 50.5023,33.0316 C49.5343,33.9696 47.4523,36.3426 47.4523,39.4206 C47.4523,43.5506 50.9883,47.3696 50.9883,47.3696 L50.9883,74.5736 C50.9883,77.8466 53.6403,80.4996 56.9143,80.4996 L99.813,80.4996 C101.5,80.4996 103.018,79.7916 104.097,78.6606 C104.165,78.5976 104.229,78.5316 104.293,78.4656 C104.36,78.4016 104.426,78.3356 104.49,78.2686 C104.556,78.2046 104.622,78.1396 104.685,78.0726 C104.753,78.0086 104.818,77.9446 104.882,77.8766 C104.949,77.8126 105.014,77.7476 105.078,77.6806 C105.144,77.6166 105.21,77.5516 105.273,77.4856 C105.341,77.4206 105.406,77.3556 105.47,77.2886 C105.537,77.2246 105.602,77.1596 105.666,77.0926 C105.733,77.0286 105.799,76.9636 105.862,76.8966 C105.929,76.8326 105.994,76.7676 106.057,76.7006 C106.125,76.6366 106.19,76.5706 106.255,76.5046 C106.321,76.4406 106.386,76.3756 106.45,76.3086 C106.517,76.2446 106.583,76.1786 106.646,76.1126 C106.714,76.0486 106.779,75.9826 106.843,75.9166 C106.909,75.8526 106.974,75.7866 107.038,75.7196 C107.105,75.6556 107.171,75.5906 107.235,75.5236 C107.302,75.4596 107.367,75.3946 107.43,75.3276 C107.498,75.2636 107.563,75.1986 107.627,75.1316 C107.694,75.0676 107.759,75.0026 107.823,74.9356 C107.889,74.8716 107.955,74.8066 108.019,74.7396 C108.086,74.6756 108.151,74.6106 108.215,74.5436 C108.282,74.4796 108.347,74.4146 108.411,74.3476 C108.478,74.2836 108.543,74.2186 108.607,74.1516 C108.674,74.0876 108.739,74.0226 108.803,73.9556 C108.87,73.8916 108.935,73.8256 109,73.7586 C109.066,73.6956 109.132,73.6306 109.195,73.5636 C109.262,73.4996 109.328,73.4336 109.391,73.3666 C109.459,73.3026 109.523,73.2376 109.588,73.1716 C109.654,73.1076 109.719,73.0416 109.784,72.9746 C109.85,72.9106 109.916,72.8456 109.979,72.7796 C110.047,72.7156 110.112,72.6496 110.176,72.5826 C110.243,72.5186 110.308,72.4536 110.372,72.3866 C110.439,72.3226 110.504,72.2576 110.568,72.1906 C110.635,72.1266 110.7,72.0616 110.764,71.9946 C110.831,71.9306 110.896,71.8656 110.96,71.7986 C111.027,71.7346 111.093,71.6696 111.156,71.6026 C111.223,71.5386 111.288,71.4736 111.352,71.4066 C111.419,71.3426 111.484,71.2776 111.549,71.2096 C111.615,71.1466 111.68,71.0816 111.744,71.0146 C111.811,70.9506 111.877,70.8846 111.941,70.8176 C112.008,70.7546 112.073,70.6896 112.136,70.6226 C112.204,70.5586 112.268,70.4926 112.333,70.4256 C112.399,70.3626 112.465,70.2966 112.528,70.2306 C112.595,70.1656 112.661,70.1006 112.724,70.0336 C112.792,69.9696 112.857,69.9046 112.921,69.8376 C112.988,69.7736 113.053,69.7086 113.117,69.6416 C113.184,69.5776 113.249,69.5126 113.313,69.4456 C113.38,69.3816 113.445,69.3166 113.509,69.2496 C113.576,69.1856 113.641,69.1206 113.706,69.0526 C113.772,68.9896 113.838,68.9246 113.901,68.8576 C115.032,67.7786 115.74,66.2596 115.74,64.5736 L115.74,37.3696 C115.74,37.3696 119.275,33.5506 119.275,29.4206 C119.275,25.4146 115.74,22.5916 115.74,22.5916 Z" id="Fill-7" fill="#EFFBFD"></path>
                <path d="M115.74,22.5916 C115.74,22.5916 108.895,15.7476 88.3643,15.7476 C67.8323,15.7476 60.9883,22.5916 60.9883,22.5916 C60.9883,22.5916 60.7063,22.8196 60.3073,23.2266 C60.2453,23.2856 60.1793,23.3526 60.1093,23.4246 C60.0493,23.4826 59.9833,23.5486 59.9153,23.6186 C59.8533,23.6776 59.7873,23.7446 59.7173,23.8166 C59.6563,23.8756 59.5923,23.9406 59.5233,24.0106 C59.4623,24.0706 59.3953,24.1366 59.3263,24.2076 C59.2643,24.2666 59.1983,24.3336 59.1293,24.4046 C59.0683,24.4636 59.0043,24.5286 58.9343,24.5986 C58.8733,24.6586 58.8063,24.7256 58.7363,24.7966 C58.6763,24.8556 58.6113,24.9206 58.5433,24.9906 C58.4803,25.0506 58.4153,25.1176 58.3443,25.1886 C58.2843,25.2476 58.2193,25.3136 58.1503,25.3836 C58.0893,25.4426 58.0223,25.5096 57.9523,25.5806 C57.8913,25.6396 57.8273,25.7056 57.7593,25.7756 C57.6973,25.8346 57.6313,25.9016 57.5613,25.9716 C57.5003,26.0316 57.4333,26.0976 57.3643,26.1696 C57.3033,26.2276 57.2383,26.2936 57.1703,26.3636 C57.1083,26.4236 57.0423,26.4896 56.9713,26.5616 C56.9113,26.6206 56.8463,26.6856 56.7783,26.7556 C56.7163,26.8156 56.6503,26.8826 56.5803,26.9536 C56.5193,27.0126 56.4543,27.0776 56.3863,27.1476 C56.3243,27.2076 56.2583,27.2746 56.1873,27.3456 C56.1273,27.4046 56.0623,27.4696 55.9933,27.5396 C55.9313,27.5996 55.8663,27.6666 55.7963,27.7376 C55.7353,27.7966 55.6703,27.8626 55.6013,27.9316 C55.5403,27.9916 55.4743,28.0576 55.4043,28.1296 C55.3433,28.1886 55.2773,28.2556 55.2073,28.3256 C55.1463,28.3846 55.0823,28.4506 55.0133,28.5206 C54.9513,28.5806 54.8863,28.6466 54.8153,28.7176 C54.7553,28.7776 54.6893,28.8426 54.6213,28.9126 C54.5593,28.9726 54.4933,29.0386 54.4233,29.1106 C54.3623,29.1696 54.2983,29.2346 54.2283,29.3046 C54.1673,29.3646 54.1003,29.4306 54.0313,29.5026 C53.9703,29.5616 53.9053,29.6266 53.8373,29.6966 C53.7753,29.7566 53.7093,29.8226 53.6393,29.8936 C53.5783,29.9536 53.5123,30.0196 53.4423,30.0906 C53.3823,30.1496 53.3173,30.2156 53.2483,30.2846 C53.1863,30.3446 53.1213,30.4116 53.0513,30.4836 C52.9903,30.5416 52.9253,30.6076 52.8563,30.6766 C52.7953,30.7376 52.7283,30.8036 52.6583,30.8756 C52.5973,30.9336 52.5333,30.9996 52.4643,31.0696 C52.4023,31.1296 52.3363,31.1956 52.2663,31.2676 C52.2063,31.3256 52.1403,31.3916 52.0723,31.4616 C52.0103,31.5216 51.9443,31.5876 51.8743,31.6596 C51.8133,31.7176 51.7493,31.7836 51.6793,31.8536 C51.6183,31.9136 51.5523,31.9796 51.4823,32.0506 C51.4213,32.1106 51.3553,32.1766 51.2863,32.2476 C51.2253,32.3066 51.1603,32.3716 51.0923,32.4416 C51.0303,32.5016 50.9643,32.5686 50.8933,32.6396 C50.8333,32.6986 50.7683,32.7636 50.6993,32.8336 C50.6373,32.8936 50.5713,32.9606 50.5023,33.0316 C49.5343,33.9696 47.4523,36.3426 47.4523,39.4206 C47.4523,43.5506 50.9883,47.3696 50.9883,47.3696 L50.9883,74.5736 C50.9883,77.8466 53.6403,80.4996 56.9143,80.4996 L99.813,80.4996 C101.5,80.4996 103.018,79.7916 104.097,78.6606 C104.165,78.5976 104.229,78.5316 104.293,78.4656 C104.36,78.4016 104.426,78.3356 104.49,78.2686 C104.556,78.2046 104.622,78.1396 104.685,78.0726 C104.753,78.0086 104.818,77.9446 104.882,77.8766 C104.949,77.8126 105.014,77.7476 105.078,77.6806 C105.144,77.6166 105.21,77.5516 105.273,77.4856 C105.341,77.4206 105.406,77.3556 105.47,77.2886 C105.537,77.2246 105.602,77.1596 105.666,77.0926 C105.733,77.0286 105.799,76.9636 105.862,76.8966 C105.929,76.8326 105.994,76.7676 106.057,76.7006 C106.125,76.6366 106.19,76.5706 106.255,76.5046 C106.321,76.4406 106.386,76.3756 106.45,76.3086 C106.517,76.2446 106.583,76.1786 106.646,76.1126 C106.714,76.0486 106.779,75.9826 106.843,75.9166 C106.909,75.8526 106.974,75.7866 107.038,75.7196 C107.105,75.6556 107.171,75.5906 107.235,75.5236 C107.302,75.4596 107.367,75.3946 107.43,75.3276 C107.498,75.2636 107.563,75.1986 107.627,75.1316 C107.694,75.0676 107.759,75.0026 107.823,74.9356 C107.889,74.8716 107.955,74.8066 108.019,74.7396 C108.086,74.6756 108.151,74.6106 108.215,74.5436 C108.282,74.4796 108.347,74.4146 108.411,74.3476 C108.478,74.2836 108.543,74.2186 108.607,74.1516 C108.674,74.0876 108.739,74.0226 108.803,73.9556 C108.87,73.8916 108.935,73.8256 109,73.7586 C109.066,73.6956 109.132,73.6306 109.195,73.5636 C109.262,73.4996 109.328,73.4336 109.391,73.3666 C109.459,73.3026 109.523,73.2376 109.588,73.1716 C109.654,73.1076 109.719,73.0416 109.784,72.9746 C109.85,72.9106 109.916,72.8456 109.979,72.7796 C110.047,72.7156 110.112,72.6496 110.176,72.5826 C110.243,72.5186 110.308,72.4536 110.372,72.3866 C110.439,72.3226 110.504,72.2576 110.568,72.1906 C110.635,72.1266 110.7,72.0616 110.764,71.9946 C110.831,71.9306 110.896,71.8656 110.96,71.7986 C111.027,71.7346 111.093,71.6696 111.156,71.6026 C111.223,71.5386 111.288,71.4736 111.352,71.4066 C111.419,71.3426 111.484,71.2776 111.549,71.2096 C111.615,71.1466 111.68,71.0816 111.744,71.0146 C111.811,70.9506 111.877,70.8846 111.941,70.8176 C112.008,70.7546 112.073,70.6896 112.136,70.6226 C112.204,70.5586 112.268,70.4926 112.333,70.4256 C112.399,70.3626 112.465,70.2966 112.528,70.2306 C112.595,70.1656 112.661,70.1006 112.724,70.0336 C112.792,69.9696 112.857,69.9046 112.921,69.8376 C112.988,69.7736 113.053,69.7086 113.117,69.6416 C113.184,69.5776 113.249,69.5126 113.313,69.4456 C113.38,69.3816 113.445,69.3166 113.509,69.2496 C113.576,69.1856 113.641,69.1206 113.706,69.0526 C113.772,68.9896 113.838,68.9246 113.901,68.8576 C115.032,67.7786 115.74,66.2596 115.74,64.5736 L115.74,37.3696 C115.74,37.3696 119.275,33.5506 119.275,29.4206 C119.275,25.4146 115.74,22.5916 115.74,22.5916 Z" id="Stroke-8" stroke="#00354E" stroke-width="3" stroke-linejoin="round"></path>
                <path d="M105.74,32.5916 C105.74,32.5916 98.8953,25.7476 78.3643,25.7476 C57.8323,25.7476 50.9883,32.5916 50.9883,32.5916 C50.9883,32.5916 47.4523,35.4146 47.4523,39.4206 C47.4523,43.5506 50.9883,47.3696 50.9883,47.3696 L50.9883,74.5736 C50.9883,77.8466 53.6403,80.4996 56.9143,80.4996 L99.813,80.4996 C103.087,80.4996 105.74,77.8466 105.74,74.5736 L105.74,47.3696 C105.74,47.3696 109.275,43.5506 109.275,39.4206 C109.275,35.4146 105.74,32.5916 105.74,32.5916 Z" id="Fill-9" fill="#FFFFFF"></path>
                <path d="M105.74,32.5916 C105.74,32.5916 98.8953,25.7476 78.3643,25.7476 C57.8323,25.7476 50.9883,32.5916 50.9883,32.5916 C50.9883,32.5916 47.4523,35.4146 47.4523,39.4206 C47.4523,43.5506 50.9883,47.3696 50.9883,47.3696 L50.9883,74.5736 C50.9883,77.8466 53.6403,80.4996 56.9143,80.4996 L99.813,80.4996 C103.087,80.4996 105.74,77.8466 105.74,74.5736 L105.74,47.3696 C105.74,47.3696 109.275,43.5506 109.275,39.4206 C109.275,35.4146 105.74,32.5916 105.74,32.5916 Z" id="Stroke-10" stroke="#00354E" stroke-width="3" stroke-linejoin="round"></path>
                <line x1="105.74" y1="47.3694" x2="115.74" y2="37.3694" id="Stroke-11" stroke="#00354E" stroke-width="3" stroke-linejoin="round"></line>
            </g>
        </g>
    </g>
</svg>