<?xml version="1.0" encoding="UTF-8"?>
<svg width="52px" height="51px" viewBox="0 0 52 51" version="1.1" xmlns="http://www.w3.org/2000/svg" xmlns:xlink="http://www.w3.org/1999/xlink">
    <title>Group 4</title>
    <g id="Page-1" stroke="none" stroke-width="1" fill="none" fill-rule="evenodd">
        <g id="Artboard" transform="translate(-272.000000, -704.000000)">
            <g id="Group-4" transform="translate(273.000000, 705.000000)">
                <path d="M20.0558,10.53 C20.0558,10.53 14.1698,7.111 9.5988,8.377 C5.6488,9.471 3.5818,11.234 1.9828,14.288 C-1.7682,21.449 0.4658,33.384 5.2408,39.523 C10.0138,45.661 15.0138,48.73 23.1608,48.73 C31.3098,48.73 38.6988,49.754 45.5578,38.5 C45.5578,38.5 52.7928,28.042 48.0198,15.765 C44.6178,7.021 30.6278,3.703 20.0558,10.53 Z" id="Fill-1" fill="#F3F8EE"></path>
                <path d="M20.0558,10.53 C20.0558,10.53 14.1698,7.111 9.5988,8.377 C5.6488,9.471 3.5818,11.234 1.9828,14.288 C-1.7682,21.449 0.4658,33.384 5.2408,39.523 C10.0138,45.661 15.0138,48.73 23.1608,48.73 C31.3098,48.73 38.6988,49.754 45.5578,38.5 C45.5578,38.5 52.7928,28.042 48.0198,15.765 C44.6178,7.021 30.6278,3.703 20.0558,10.53 Z" id="Stroke-2" stroke="#84BD57" stroke-width="2.192" stroke-linejoin="round"></path>
                <path d="M20.0558,10.53 C20.0558,10.53 20.5108,4.172 23.0118,0.534" id="Stroke-3" stroke="#84BD57" stroke-width="2.192" stroke-linecap="round" stroke-linejoin="round"></path>
            </g>
        </g>
    </g>
</svg>