<?xml version="1.0" encoding="UTF-8"?>
<svg width="58px" height="58px" viewBox="0 0 58 58" version="1.1" xmlns="http://www.w3.org/2000/svg" xmlns:xlink="http://www.w3.org/1999/xlink">
    <title>Group 4</title>
    <g id="Page-1" stroke="none" stroke-width="1" fill="none" fill-rule="evenodd">
        <g id="Artboard" transform="translate(-414.000000, -494.000000)">
            <g id="Group-4" transform="translate(415.000000, 495.000000)">
                <path d="M15.8183,46.6018 C15.3363,46.1338 14.7843,45.7818 14.1973,45.5428 L23.6433,36.0968 L19.2593,31.7138 L9.8133,41.1598 C9.5753,40.5728 9.2223,40.0208 8.7553,39.5398 C6.8543,37.5808 3.6213,37.5058 1.6353,39.3788 C-0.4527,41.3498 -0.4887,44.6408 1.5283,46.6568 C2.9473,48.0768 4.9993,48.4778 6.7773,47.8628 C7.2283,47.7058 7.6503,48.1288 7.4943,48.5808 C6.8793,50.3578 7.2813,52.4098 8.7003,53.8298 C10.7163,55.8448 14.0063,55.8088 15.9773,53.7208 C17.8513,51.7368 17.7763,48.5028 15.8183,46.6018 Z" id="Stroke-1" stroke="#84BD57" stroke-width="2.084" stroke-linejoin="round"></path>
                <path d="M50.1416,30.3186 C57.2006,23.2606 57.0716,11.7366 49.7556,4.8406 C43.1056,-1.4274 32.5856,-1.5754 25.7746,4.5176 C21.5196,8.3256 19.5536,13.6506 19.8746,18.8616 C20.1156,22.7626 18.7956,26.5986 16.0326,29.3636 L14.4786,30.9166 C13.3776,32.0166 13.3776,33.8006 14.4786,34.9016 L20.4556,40.8786 C21.5556,41.9786 23.3396,41.9786 24.4406,40.8786 L25.9176,39.4006 C28.6726,36.6456 32.4826,35.2076 36.3706,35.4736 C41.3106,35.8136 46.3656,34.0956 50.1416,30.3186" id="Fill-2" fill="#F3F8EE"></path>
                <path d="M50.1416,30.3186 C57.2006,23.2606 57.0716,11.7366 49.7556,4.8406 C43.1056,-1.4274 32.5856,-1.5754 25.7746,4.5176 C21.5196,8.3256 19.5536,13.6506 19.8746,18.8616 C20.1156,22.7626 18.7956,26.5986 16.0326,29.3636 L14.4786,30.9166 C13.3776,32.0166 13.3776,33.8006 14.4786,34.9016 L20.4556,40.8786 C21.5556,41.9786 23.3396,41.9786 24.4406,40.8786 L25.9176,39.4006 C28.6726,36.6456 32.4826,35.2076 36.3706,35.4736 C41.3106,35.8136 46.3656,34.0956 50.1416,30.3186 Z" id="Stroke-3" stroke="#84BD57" stroke-width="2.084" stroke-linejoin="round"></path>
            </g>
        </g>
    </g>
</svg>