<?xml version="1.0" encoding="UTF-8"?>
<svg width="49px" height="60px" viewBox="0 0 49 60" version="1.1" xmlns="http://www.w3.org/2000/svg" xmlns:xlink="http://www.w3.org/1999/xlink">
    <title>Group 4</title>
    <g id="Page-1" stroke="none" stroke-width="1" fill="none" fill-rule="evenodd">
        <g id="Artboard" transform="translate(-1401.000000, -543.000000)">
            <g id="Group-4" transform="translate(1402.000000, 544.000000)">
                <path d="M46.069,23.285 C46.069,34.164 29.037,51.779 24.424,56.349 C23.791,56.978 22.779,56.978 22.144,56.349 C17.532,51.779 0.5,34.164 0.5,23.285 C0.5,10.702 10.701,0.5 23.285,0.5 C35.868,0.5 46.069,10.702 46.069,23.285 Z" id="Stroke-1" stroke="#00354E" stroke-width="3" stroke-linejoin="round"></path>
                <path d="M34.6764,23.285 C34.6764,29.577 29.5754,34.677 23.2844,34.677 C16.9924,34.677 11.8924,29.577 11.8924,23.285 C11.8924,16.993 16.9924,11.892 23.2844,11.892 C29.5754,11.892 34.6764,16.993 34.6764,23.285" id="Fill-2" fill="#FFFFFF"></path>
                <path d="M34.6764,23.2845 C34.6764,16.9968 29.5718,11.892 23.2844,11.892 C16.997,11.892 11.8924,16.9968 11.8924,23.2845 C11.8924,29.5721 16.997,34.677 23.2844,34.677 C29.5718,34.677 34.6764,29.5721 34.6764,23.2845 Z" id="Stroke-3" stroke="#84BD57" stroke-width="3" stroke-linejoin="round"></path>
            </g>
        </g>
    </g>
</svg>