<?xml version="1.0" encoding="UTF-8"?>
<svg width="57px" height="58px" viewBox="0 0 57 58" version="1.1" xmlns="http://www.w3.org/2000/svg" xmlns:xlink="http://www.w3.org/1999/xlink">
    <title>Group 6</title>
    <g id="Page-1" stroke="none" stroke-width="1" fill="none" fill-rule="evenodd">
        <g id="Artboard" transform="translate(-470.000000, -598.000000)">
            <g id="Group-6" transform="translate(471.000000, 599.000000)">
                <path d="M16.0091,35.3317 C16.0091,35.3317 19.1941,43.6387 20.0241,48.6217 C20.8551,53.6057 20.7161,55.7647 20.7161,55.7647 L31.0991,55.7647 C31.0991,55.7647 32.0681,40.1777 33.5911,35.3317 C35.1131,30.4867 16.0091,35.3317 16.0091,35.3317 Z" id="Fill-1" fill="#FFFFFF"></path>
                <path d="M16.0091,35.3317 C16.0091,35.3317 19.1941,43.6387 20.0241,48.6217 C20.8551,53.6057 20.7161,55.7647 20.7161,55.7647 L31.0991,55.7647 C31.0991,55.7647 32.0681,40.1777 33.5911,35.3317 C35.1131,30.4867 16.0091,35.3317 16.0091,35.3317 Z" id="Stroke-2" stroke="#84BD57" stroke-width="2.084" stroke-linecap="round" stroke-linejoin="round"></path>
                <line x1="25.3773" y1="38.9772" x2="25.3773" y2="48.2062" id="Stroke-3" stroke="#84BD57" stroke-width="2.084" stroke-linecap="round" stroke-linejoin="round"></line>
                <path d="M46.847,16.612 C46.396,9.681 40.647,4.195 33.601,4.195 C32.47,4.195 31.378,4.351 30.329,4.617 C27.893,1.819 24.313,0.042 20.311,0.042 C12.971,0.042 7.021,5.992 7.021,13.332 C7.021,14.174 7.109,14.995 7.258,15.794 C2.976,18.001 0.042,22.456 0.042,27.605 C0.042,34.945 5.993,40.895 13.332,40.895 C15.09,40.895 16.764,40.546 18.3,39.925 C20.578,41.759 23.47,42.862 26.622,42.862 C29.648,42.862 32.427,41.84 34.661,40.137 C36.689,41.391 39.072,42.127 41.63,42.127 C48.971,42.127 54.92,36.176 54.92,28.837 C54.92,23.349 51.593,18.64 46.847,16.612 Z" id="Fill-4" fill="#F3F8EE"></path>
                <path d="M46.847,16.612 C46.396,9.681 40.647,4.195 33.601,4.195 C32.47,4.195 31.378,4.351 30.329,4.617 C27.893,1.819 24.313,0.042 20.311,0.042 C12.971,0.042 7.021,5.992 7.021,13.332 C7.021,14.174 7.109,14.995 7.258,15.794 C2.976,18.001 0.042,22.456 0.042,27.605 C0.042,34.945 5.993,40.895 13.332,40.895 C15.09,40.895 16.764,40.546 18.3,39.925 C20.578,41.759 23.47,42.862 26.622,42.862 C29.648,42.862 32.427,41.84 34.661,40.137 C36.689,41.391 39.072,42.127 41.63,42.127 C48.971,42.127 54.92,36.176 54.92,28.837 C54.92,23.349 51.593,18.64 46.847,16.612 Z" id="Stroke-5" stroke="#84BD57" stroke-width="2.084" stroke-linecap="round" stroke-linejoin="round"></path>
            </g>
        </g>
    </g>
</svg>